<?xml version="1.0" encoding="UTF-8"?>
<svg id="Layer_2" data-name="Layer 2" xmlns="http://www.w3.org/2000/svg" viewBox="0 0 24.34 12.17">
  <defs>
    <style>
      .cls-1 {
        fill: #f79f1b;
      }

      .cls-2 {
        fill: #eb001b;
      }

      .cls-3 {
        fill: #fff;
      }

      .cls-4 {
        fill: #ff6002;
      }

      .cls-5 {
        fill: #162b70;
      }
    </style>
  </defs>
  <g id="_ÎÓÈ_1" data-name="—ÎÓÈ_1">
    <g>
      <path class="cls-5" d="M12.17,12.17H3.22c-1.78,0-3.22-1.44-3.22-3.22V3.22C0,1.44,1.44,0,3.22,0H12.17s0,0,0,0V12.17Z"/>
      <g>
        <path class="cls-3" d="M1.09,4.63l.02-.11h1.35c.08,0,.15,.02,.22,.06,.08,.04,.16,.12,.18,.26l.34,1.82,.85-2.13h.86l-1.33,3.13h-.85l-.66-2.55s-.03-.32-.98-.47Z"/>
        <polygon class="cls-3" points="6.05 4.52 5.24 4.52 4.56 7.65 5.38 7.65 6.05 4.52"/>
        <path class="cls-3" d="M8.38,4.62l-.15,.66s-.26-.16-.65-.16-.48,.2-.48,.27,.05,.19,.37,.36c.33,.17,.76,.35,.76,.89s-.38,1.07-1.38,1.07c0,0-.57,0-.92-.16l.15-.69s.34,.2,.77,.2,.54-.19,.54-.3-.07-.24-.41-.39c-.35-.15-.71-.43-.71-.86s.37-1.03,1.36-1.03c0,0,.48,.01,.76,.15Z"/>
        <path class="cls-3" d="M10.43,4.53h-.69c-.15,0-.29,.09-.35,.23l-1.21,2.89h.85l.17-.47h1.04l.09,.47h.75l-.65-3.12Zm-1,2.02l.43-1.18,.25,1.18h-.68Z"/>
      </g>
    </g>
    <g>
      <path d="M12.17,0h8.96c1.77,0,3.22,1.44,3.22,3.22v5.74c0,1.77-1.44,3.22-3.22,3.22H12.17V0h0Z"/>
      <g>
        <g>
          <g>
            <path class="cls-3" d="M14.96,8.9c.09,0,.16,.03,.21,.08,.05,.05,.08,.12,.08,.21v.45h-.16v-.4c0-.06-.01-.11-.04-.14-.03-.03-.07-.05-.12-.05s-.1,.02-.13,.05c-.04,.03-.05,.08-.05,.14v.4h-.16v-.4c0-.06-.01-.11-.04-.14-.03-.03-.07-.05-.12-.05s-.1,.02-.13,.05c-.04,.03-.05,.08-.05,.14v.4h-.16v-.72h.16v.09c.05-.07,.12-.11,.22-.11,.05,0,.1,.01,.15,.03,.04,.02,.08,.05,.1,.1,.05-.09,.14-.13,.26-.13Z"/>
            <path class="cls-3" d="M16.19,9.64h-.16v-.09c-.06,.07-.13,.11-.23,.11-.1,0-.19-.04-.26-.11-.07-.07-.1-.16-.1-.27s.03-.2,.1-.27c.07-.07,.16-.11,.26-.11,.1,0,.17,.04,.23,.11v-.09h.16v.72Zm-.37-.59c-.07,0-.12,.02-.16,.07-.04,.04-.06,.1-.06,.17s.02,.12,.06,.16c.04,.04,.09,.07,.16,.07s.12-.02,.16-.07c.04-.04,.06-.1,.06-.17s-.02-.12-.06-.17c-.04-.04-.09-.07-.16-.07Z"/>
            <path class="cls-3" d="M16.93,9.1s-.06-.03-.1-.04-.08-.02-.12-.02-.08,0-.1,.02c-.02,.02-.04,.04-.04,.06,0,.02,.01,.04,.03,.05,.02,.01,.05,.02,.09,.02h.07c.17,.04,.25,.11,.25,.23,0,.07-.03,.13-.09,.17s-.14,.06-.24,.06c-.05,0-.1,0-.16-.02s-.11-.04-.15-.07l.07-.12c.06,.05,.14,.07,.24,.07,.05,0,.09,0,.12-.02s.04-.04,.04-.07c0-.04-.04-.07-.13-.08h-.08c-.08-.02-.14-.04-.18-.08-.04-.04-.06-.08-.06-.14,0-.07,.03-.13,.08-.17,.05-.04,.13-.06,.22-.06,.12,0,.21,.03,.29,.08l-.07,.12Z"/>
            <path class="cls-3" d="M17.69,9.06h-.28v.31s.01,.08,.03,.1c.02,.02,.05,.03,.08,.03,.05,0,.09-.02,.15-.05l.06,.13c-.07,.05-.15,.07-.22,.07-.08,0-.15-.02-.19-.07s-.07-.12-.07-.21v-.32h-.14v-.14h.14v-.22h.16v.22h.28v.14Z"/>
            <path class="cls-3" d="M18.19,8.9c.1,0,.18,.04,.25,.11,.06,.07,.1,.16,.1,.27,0,.02,0,.04,0,.06h-.53c0,.06,.03,.11,.07,.14,.04,.03,.09,.05,.14,.05,.08,0,.15-.03,.21-.08l.08,.11c-.08,.07-.18,.1-.3,.1-.11,0-.2-.03-.27-.1s-.1-.16-.1-.28,.03-.21,.1-.28c.07-.07,.15-.11,.26-.11Zm0,.14c-.05,0-.1,.02-.13,.05-.03,.03-.05,.08-.06,.13h.38c0-.06-.03-.1-.06-.13-.03-.03-.07-.05-.12-.05Z"/>
            <path class="cls-3" d="M19.1,8.9s.09,0,.12,.02l-.04,.16s-.07-.03-.12-.03c-.05,0-.09,.02-.12,.05-.03,.03-.05,.08-.05,.14v.4h-.16v-.72h.16v.08c.05-.07,.12-.1,.21-.1Z"/>
            <path class="cls-3" d="M19.71,8.9c.05,0,.11,0,.15,.03,.05,.02,.09,.05,.12,.09l-.1,.11c-.05-.05-.11-.07-.17-.07s-.11,.02-.15,.06c-.04,.04-.06,.1-.06,.17s.02,.12,.06,.17c.04,.04,.09,.06,.15,.06s.12-.03,.18-.08l.1,.11c-.07,.08-.16,.12-.27,.12s-.2-.04-.28-.11c-.07-.07-.11-.16-.11-.27s.04-.2,.11-.27c.07-.07,.16-.11,.28-.11Z"/>
            <path class="cls-3" d="M20.85,9.64h-.16v-.09c-.06,.07-.13,.11-.23,.11-.1,0-.19-.04-.26-.11s-.1-.16-.1-.27,.03-.2,.1-.27,.16-.11,.26-.11c.1,0,.17,.04,.23,.11v-.09h.16v.72Zm-.37-.59c-.07,0-.12,.02-.16,.07-.04,.04-.06,.1-.06,.17s.02,.12,.06,.16c.04,.04,.09,.07,.16,.07s.12-.02,.16-.07c.04-.04,.06-.1,.06-.17s-.02-.12-.06-.17c-.04-.04-.09-.07-.16-.07Z"/>
            <path class="cls-3" d="M21.46,8.9s.09,0,.12,.02l-.04,.16s-.07-.03-.12-.03c-.05,0-.09,.02-.12,.05-.03,.03-.05,.08-.05,.14v.4h-.16v-.72h.16v.08c.05-.07,.12-.1,.21-.1Z"/>
            <path class="cls-3" d="M22.06,8.9c.1,0,.17,.04,.23,.11v-.45h.16v1.09h-.16v-.09c-.06,.07-.13,.11-.23,.11-.1,0-.19-.04-.26-.11s-.1-.16-.1-.27,.03-.2,.1-.27,.16-.11,.26-.11Zm.02,.15c-.07,0-.12,.02-.16,.07-.04,.04-.06,.1-.06,.17s.02,.12,.06,.16c.04,.04,.09,.07,.16,.07s.12-.02,.16-.07,.06-.1,.06-.17-.02-.12-.06-.17-.09-.07-.16-.07Z"/>
          </g>
          <g>
            <path class="cls-3" d="M22.79,9.59s.02,0,.02,0c0,0,0,0,0,.02,0,0,0,.01,0,.01,0,0-.01,0-.02,0l.03,.03h-.02l-.02-.03h0v.03h-.01v-.07h.03Zm-.02,.01v.02h.02s0,0,.01,0,0,0,0,0,0,0,0,0c0,0,0,0-.01,0h-.02Z"/>
            <path class="cls-3" d="M22.79,9.55s-.08,.03-.08,.08,.03,.08,.08,.08,.08-.03,.08-.08-.03-.08-.08-.08Zm0,.14s-.06-.03-.06-.06,.03-.06,.06-.06,.06,.03,.06,.06-.03,.06-.06,.06Z"/>
          </g>
        </g>
        <g>
          <g>
            <path class="cls-2" d="M17.14,5.36c0-.93,.44-1.75,1.12-2.28-.49-.38-1.1-.61-1.77-.61-1.59,0-2.89,1.29-2.89,2.89s1.29,2.89,2.89,2.89c.67,0,1.28-.23,1.77-.61-.68-.53-1.12-1.35-1.12-2.28Z"/>
            <path class="cls-1" d="M20.02,2.47c-.67,0-1.28,.23-1.77,.61,.68,.53,1.12,1.35,1.12,2.28s-.44,1.75-1.12,2.28c.49,.38,1.1,.61,1.77,.61,1.59,0,2.89-1.29,2.89-2.89s-1.29-2.89-2.89-2.89Z"/>
            <path class="cls-4" d="M19.37,5.36c0-.93-.44-1.75-1.12-2.28-.68,.53-1.12,1.35-1.12,2.28s.44,1.75,1.12,2.28c.68-.53,1.12-1.35,1.12-2.28Z"/>
          </g>
          <g>
            <path class="cls-1" d="M22.77,6.78h-.04v.09h-.02v-.09h-.04v-.02h.09v.02Z"/>
            <path class="cls-1" d="M22.9,6.87h-.02v-.08l-.03,.07h-.02l-.03-.07v.08h-.02v-.1h.03l.03,.07,.03-.07h.03v.1Z"/>
          </g>
        </g>
      </g>
    </g>
  </g>
</svg>