<?xml version="1.0" encoding="UTF-8"?>
<svg id="Layer_2" data-name="Layer 2" xmlns="http://www.w3.org/2000/svg" viewBox="0 0 659.37 409.42">
  <defs>
    <style>
      .cls-1 {
        fill: #df3219;
      }

      .cls-2 {
        fill: #20201d;
      }
    </style>
  </defs>
  <g id="_ëÎÓÈ_1" data-name="ëÎÓÈ 1">
    <g>
      <g>
        <path class="cls-1" d="M526.53,409.42c-39.44,0-71.53-32.09-71.53-71.53s32.09-71.53,71.53-71.53,71.54,32.09,71.54,71.53-32.09,71.53-71.54,71.53Zm0-123.07c-28.41,0-51.53,23.12-51.53,51.53s23.12,51.53,51.53,51.53,51.54-23.12,51.54-51.53-23.12-51.53-51.54-51.53Z"/>
        <path class="cls-1" d="M145.05,409.42c-39.44,0-71.53-32.09-71.53-71.53s32.09-71.53,71.53-71.53,71.54,32.09,71.54,71.53-32.09,71.53-71.54,71.53Zm0-123.07c-28.41,0-51.53,23.12-51.53,51.53s23.12,51.53,51.53,51.53,51.54-23.12,51.54-51.53-23.12-51.53-51.54-51.53Z"/>
        <path class="cls-2" d="M514.36,238.79h-19.02c-5.52,0-10-4.47-10-10s4.48-10,10-10h19.02c5.52,0,10,4.47,10,10s-4.48,10-10,10Z"/>
        <g>
          <path class="cls-2" d="M628.51,333.92h-14.25c-5.52,0-10-4.47-10-10s4.48-10,10-10h5.53l19.22-140.28-63.64-115.59h-108.25l-36.37,255.86h36.04c5.52,0,10,4.47,10,10s-4.48,10-10,10h-47.56c-2.9,0-5.65-1.26-7.55-3.45s-2.75-5.09-2.35-7.96L448.54,46.65c.7-4.93,4.92-8.59,9.9-8.59h122.83c3.65,0,7,1.98,8.76,5.18l68.09,123.66c1.04,1.88,1.44,4.05,1.15,6.18l-20.86,152.2c-.68,4.95-4.91,8.64-9.91,8.64Z"/>
          <path class="cls-2" d="M649.37,181.72h-161.11c-2.9,0-5.65-1.25-7.55-3.44-1.9-2.18-2.76-5.09-2.35-7.95l12.07-85.62c.77-5.47,5.88-9.28,11.3-8.51,5.47,.77,9.28,5.83,8.51,11.3l-10.46,74.22h149.6c5.52,0,10,4.48,10,10s-4.48,10-10,10Z"/>
          <path class="cls-2" d="M82.73,333.92H14.94c-2.92,0-5.7-1.28-7.6-3.5-1.9-2.22-2.73-5.16-2.29-8.05l13.81-88.66c.85-5.46,5.97-9.18,11.42-8.34,5.46,.85,9.19,5.97,8.34,11.43l-12.01,77.12h56.11c5.52,0,10,4.47,10,10s-4.48,10-10,10Z"/>
          <path class="cls-2" d="M419.23,333.92H236.12c-5.52,0-10-4.47-10-10s4.48-10,10-10h174.43L452.33,20H152.67c-5.52,0-10-4.48-10-10s4.48-10,10-10H463.86c2.9,0,5.65,1.25,7.55,3.45,1.9,2.19,2.75,5.09,2.35,7.96l-44.63,313.92c-.7,4.93-4.92,8.59-9.9,8.59Z"/>
        </g>
      </g>
      <path class="cls-1" d="M260,75.25H60c-5.52,0-10-4.48-10-10s4.48-10,10-10h200c5.52,0,10,4.48,10,10s-4.48,10-10,10Z"/>
      <path class="cls-1" d="M210,135.25H10c-5.52,0-10-4.48-10-10s4.48-10,10-10H210c5.52,0,10,4.48,10,10s-4.48,10-10,10Z"/>
      <path class="cls-1" d="M180,195.25H90c-5.52,0-10-4.48-10-10s4.48-10,10-10h90c5.52,0,10,4.48,10,10s-4.48,10-10,10Z"/>
    </g>
  </g>
</svg>