<?xml version="1.0" encoding="UTF-8"?>
<svg id="Layer_2" data-name="Layer 2" xmlns="http://www.w3.org/2000/svg" viewBox="0 0 742.37 526.26">
  <defs>
    <style>
      .cls-1 {
        fill: #df3219;
      }

      .cls-2 {
        fill: #20201d;
      }
    </style>
  </defs>
  <g id="_ëÎÓÈ_1" data-name="ëÎÓÈ 1">
    <g>
      <g>
        <path class="cls-2" d="M732.37,446.89h-14.99c-5.52,0-10-4.47-10-10s4.48-10,10-10h4.99v-146.88l-85.24-123.12h-114.76V426.89h40c5.52,0,10,4.47,10,10s-4.48,10-10,10h-50c-5.52,0-10-4.47-10-10V146.88c0-5.52,4.48-10,10-10h130c3.28,0,6.35,1.61,8.22,4.31l90,130c1.16,1.67,1.78,3.66,1.78,5.69v160.01c0,5.53-4.48,10-10,10Z"/>
        <path class="cls-2" d="M732.37,286.88h-170c-5.52,0-10-4.48-10-10v-90c0-5.52,4.48-10,10-10s10,4.48,10,10v80h160c5.52,0,10,4.48,10,10s-4.48,10-10,10Z"/>
        <path class="cls-2" d="M612.37,346.89h-20c-5.52,0-10-4.47-10-10s4.48-10,10-10h20c5.52,0,10,4.47,10,10s-4.48,10-10,10Z"/>
        <path class="cls-2" d="M158.64,446.89H87.37c-5.52,0-10-4.47-10-10v-144.49c0-5.52,4.48-10,10-10s10,4.48,10,10v134.49h61.26c5.52,0,10,4.47,10,10s-4.48,10-10,10Z"/>
        <path class="cls-2" d="M512.37,446.89h-192.49c-5.52,0-10-4.47-10-10s4.48-10,10-10h182.49V116.88h-209.57c-5.52,0-10-4.48-10-10s4.48-10,10-10h219.57c5.52,0,10,4.48,10,10V436.89c0,5.53-4.48,10-10,10Z"/>
        <path class="cls-2" d="M625.18,526.26c-41.18,0-74.69-33.51-74.69-74.69s33.51-74.69,74.69-74.69,74.69,33.51,74.69,74.69-33.51,74.69-74.69,74.69Zm0-129.38c-30.16,0-54.69,24.53-54.69,54.69s24.53,54.69,54.69,54.69,54.69-24.53,54.69-54.69-24.53-54.69-54.69-54.69Z"/>
        <path class="cls-2" d="M224.15,526.26c-41.19,0-74.69-33.51-74.69-74.69s33.51-74.69,74.69-74.69,74.69,33.51,74.69,74.69-33.51,74.69-74.69,74.69Zm0-129.38c-30.16,0-54.69,24.53-54.69,54.69s24.54,54.69,54.69,54.69,54.69-24.53,54.69-54.69-24.53-54.69-54.69-54.69Z"/>
      </g>
      <g>
        <path class="cls-1" d="M182.71,270.97c-2.17,0-4.31-.71-6.08-2.06l-34.69-26.58-34.69,26.58c-2.63,2-6.05,2.58-9.17,1.57-3.13-1.02-5.56-3.51-6.49-6.67l-12.44-41.89-43.69,1.11c-3.27,.27-6.41-1.46-8.34-4.12-1.93-2.66-2.44-6.11-1.34-9.21l14.56-41.21L4.33,143.72c-2.71-1.87-4.33-4.95-4.33-8.24s1.62-6.37,4.33-8.24l36-24.78-14.56-41.21c-1.1-3.1-.6-6.55,1.34-9.21s5.16-4.24,8.34-4.12l43.69,1.11L91.59,7.15c.94-3.15,3.36-5.65,6.49-6.67,3.14-1.01,6.56-.42,9.17,1.57l34.69,26.58L176.63,2.06c2.62-2,6.04-2.59,9.17-1.57,3.13,1.02,5.56,3.51,6.49,6.67l12.44,41.89,43.69-1.11c3.4-.08,6.41,1.46,8.34,4.12s2.44,6.11,1.34,9.21l-14.56,41.21,36,24.78c2.71,1.87,4.33,4.95,4.33,8.24s-1.62,6.37-4.33,8.24l-36,24.78,14.56,41.21c1.1,3.1,.6,6.55-1.34,9.21-1.93,2.66-5.1,4.23-8.34,4.12l-43.69-1.11-12.44,41.89c-.94,3.15-3.36,5.65-6.49,6.67-1.01,.33-2.06,.49-3.09,.49Zm-40.77-51.24c2.14,0,4.29,.69,6.08,2.06l29.24,22.41,10.49-35.31c1.28-4.34,5.33-7.58,9.84-7.15l36.83,.94-12.27-34.73c-1.5-4.26,.03-9,3.76-11.57l30.34-20.89-30.34-20.88c-3.73-2.56-5.26-7.3-3.76-11.57l12.27-34.74-36.83,.94c-4.5,.2-8.56-2.82-9.84-7.15l-10.49-35.31-29.24,22.41c-3.59,2.74-8.57,2.74-12.17,0l-29.24-22.41-10.49,35.31c-1.28,4.33-5.54,7.34-9.84,7.15l-36.83-.94,12.27,34.74c1.5,4.26-.03,9-3.76,11.57l-30.34,20.88,30.34,20.89c3.73,2.56,5.26,7.3,3.76,11.57l-12.27,34.73,36.83-.94c4.31-.42,8.55,2.81,9.84,7.15l10.49,35.31,29.24-22.41c1.8-1.37,3.94-2.06,6.08-2.06Z"/>
        <path class="cls-1" d="M136.49,174.42c-2.6,0-5.11-1.01-6.98-2.84l-29.94-29.2c-3.96-3.85-4.03-10.19-.18-14.14,3.86-3.95,10.19-4.04,14.14-.18l21.42,20.88,39.18-57.36c3.11-4.57,9.34-5.74,13.9-2.62,4.56,3.12,5.73,9.34,2.62,13.9l-45.89,67.2c-1.67,2.44-4.33,4.02-7.27,4.31-.33,.03-.66,.05-.99,.05Z"/>
      </g>
    </g>
  </g>
</svg>