<?xml version="1.0" encoding="UTF-8"?>
<svg id="Layer_2" data-name="Layer 2" xmlns="http://www.w3.org/2000/svg" viewBox="0 0 522.49 660.17">
  <defs>
    <style>
      .cls-1 {
        fill: #dd321b;
      }

      .cls-2 {
        fill: #20201d;
      }
    </style>
  </defs>
  <g id="_ëÎÓÈ_1" data-name="ëÎÓÈ 1">
    <g>
      <g>
        <path class="cls-2" d="M261.14,660.17c-1.71,0-3.42-.44-4.96-1.32l-174.86-99.92c-3.12-1.78-5.04-5.1-5.04-8.68v-111.97c0-5.53,4.48-10,10-10s10,4.47,10,10v106.17l164.86,94.21,164.86-94.21v-106.17c0-5.53,4.48-10,10-10s10,4.47,10,10v111.97c0,3.58-1.92,6.9-5.04,8.68l-174.86,99.92c-1.54,.88-3.25,1.32-4.96,1.32Z"/>
        <path class="cls-2" d="M261.15,459.73c-3.47,0-6.85-1.81-8.69-5.04-2.74-4.79-1.07-10.9,3.72-13.64l174.86-99.92c4.8-2.75,10.91-1.07,13.64,3.72,2.74,4.8,1.07,10.9-3.72,13.64l-174.86,99.92c-1.56,.9-3.27,1.32-4.95,1.32Z"/>
        <path class="cls-2" d="M261.14,659.57c-5.52,0-10-4.47-10-10v-196.53c0-5.53,4.48-10,10-10s10,4.47,10,10v196.53c0,5.53-4.48,10-10,10Z"/>
        <path class="cls-2" d="M184.7,503.41c-1.71,0-3.42-.44-4.96-1.31L5.04,402.47C1.92,400.68,0,397.36,0,393.77c0-3.59,1.93-6.9,5.06-8.68l76.46-43.45c3.07-1.74,6.82-1.74,9.89,0l174.68,99.39c4.8,2.73,6.47,8.84,3.75,13.63-.98,1.73-2.4,3.05-4.04,3.91l-76.14,43.52c-1.54,.88-3.25,1.32-4.96,1.32ZM30.21,393.8l154.48,88.1,56.26-32.15-154.5-87.91-56.24,31.96Z"/>
        <path class="cls-2" d="M435.99,360.14c-1.67,0-3.34-.42-4.85-1.25l-78.93-43.75c-4.83-2.69-6.58-8.77-3.9-13.59,2.68-4.83,8.76-6.58,13.59-3.91l74.01,41.03,56.19-32.1-89.09-49.78c-4.82-2.7-6.55-8.79-3.85-13.6,2.69-4.83,8.78-6.55,13.61-3.86l104.55,58.41c3.15,1.76,5.1,5.08,5.12,8.68,.01,3.6-1.91,6.94-5.04,8.73l-76.45,43.67c-1.54,.88-3.25,1.32-4.96,1.32Z"/>
        <path class="cls-2" d="M337.79,503.48c-1.71,0-3.42-.44-4.96-1.32l-76.45-43.68c-3.12-1.78-5.04-5.1-5.04-8.69,0-3.59,1.93-6.9,5.05-8.68l174.69-99.39c3.07-1.74,6.82-1.74,9.89,0l76.46,43.45c3.12,1.78,5.05,5.09,5.06,8.68,0,3.59-1.92,6.91-5.04,8.7l-174.7,99.63c-1.54,.87-3.25,1.31-4.96,1.31Zm-56.26-53.66l56.26,32.15,154.48-88.1-56.24-31.96-154.5,87.91Z"/>
        <path class="cls-2" d="M86.48,360.33c-1.71,0-3.42-.44-4.96-1.32L5.07,315.33c-3.12-1.79-5.05-5.11-5.04-8.71,0-3.59,1.95-6.91,5.09-8.68l103.49-58.39c4.81-2.71,10.91-1.02,13.62,3.8,2.71,4.8,1.01,10.91-3.8,13.62l-88.14,49.74,56.15,32.08,74.76-43.54c4.77-2.76,10.89-1.17,13.68,3.61,2.78,4.77,1.16,10.89-3.61,13.67l-79.74,46.45c-1.56,.91-3.3,1.36-5.03,1.36Z"/>
      </g>
      <g>
        <path class="cls-1" d="M261.74,229.82c-20.95,0-41.89-7.97-57.84-23.92-31.89-31.89-31.89-83.8,0-115.69,31.89-31.88,83.79-31.89,115.69,0s31.89,83.8,0,115.69h0c-15.95,15.95-36.89,23.92-57.85,23.92Zm0-143.54c-15.83,0-31.66,6.02-43.71,18.07-24.09,24.1-24.09,63.31,0,87.41,24.11,24.08,63.31,24.1,87.41,0,24.09-24.1,24.09-63.31,0-87.41-12.05-12.04-27.88-18.07-43.7-18.07Zm50.77,112.55h0Z"/>
        <path class="cls-1" d="M260.02,360.8c-6.92,0-13.7-2.82-18.59-7.73l-87.02-87.57c-60.41-60.79-62.18-159.05-3.96-219.05C179.52,16.49,218.43,0,260.02,0h0c41.58,0,80.49,16.49,109.56,46.45,58.22,60,56.45,158.26-3.96,219.05l-87.01,87.57c-4.9,4.91-11.67,7.73-18.59,7.73Zm0-340.8c-36.13,0-69.94,14.34-95.21,40.37-50.68,52.23-48.98,137.92,3.79,191.03l87.01,87.57c2.31,2.32,6.49,2.32,8.81,0l87.01-87.57c52.77-53.11,54.47-138.8,3.79-191.03h0c-25.26-26.04-59.07-40.37-95.21-40.37Z"/>
      </g>
    </g>
  </g>
</svg>